# xmcd CD database file
#
# Track frame offsets:
#	150
#	16293
#	37956
#	51569
#
# Disc length: 924 seconds
#
# Revision: 0
# Processed by: cddbd v1.5.1PL2 Copyright (c) Steve Scherf et al.
# Submitted via: CDex 1.51
#
DISCID=2c039a04
DTITLE=Mandy Collins - Nothin' I Can Do
DYEAR=2005
DGENRE=Country
TTITLE0=I Feel Lucky
TTITLE1=Blanket On The Ground
TTITLE2=Nothin' I Can Do
TTITLE3=Saddle Boy
EXTD=YEAR: 2005
EXTT0=
EXTT1=
EXTT2=
EXTT3=
PLAYORDER=
